<?xml version="1.0" encoding="UTF-8" standalone="no"?>
<!-- Created with Inkscape (http://www.inkscape.org/) -->

<svg
   version="1.1"
   id="svg1"
   width="628.88"
   height="437.57333"
   viewBox="0 0 628.88 437.57333"
   sodipodi:docname="NMOS_fT_gmID.eps"
   xmlns:inkscape="http://www.inkscape.org/namespaces/inkscape"
   xmlns:sodipodi="http://sodipodi.sourceforge.net/DTD/sodipodi-0.dtd"
   xmlns="http://www.w3.org/2000/svg"
   xmlns:svg="http://www.w3.org/2000/svg">
  <defs
     id="defs1">
    <clipPath
       clipPathUnits="userSpaceOnUse"
       id="clipPath4">
      <path
         d="m 409.191,388.719 h 3571.2 v 2661.12 h -3571.2 z"
         transform="translate(0,-2.5000001e-5)"
         id="path4" />
    </clipPath>
    <clipPath
       clipPathUnits="userSpaceOnUse"
       id="clipPath7">
      <path
         d="m 409.191,388.719 h 3571.2 v 2661.12 h -3571.2 z"
         transform="translate(0,-2.5000001e-5)"
         id="path7" />
    </clipPath>
    <clipPath
       clipPathUnits="userSpaceOnUse"
       id="clipPath10">
      <path
         d="m 409.191,388.719 h 3571.2 v 2661.12 h -3571.2 z"
         transform="translate(0,-2.5000001e-5)"
         id="path10" />
    </clipPath>
    <clipPath
       clipPathUnits="userSpaceOnUse"
       id="clipPath13">
      <path
         d="m 409.191,388.719 h 3571.2 v 2661.12 h -3571.2 z"
         transform="translate(0,-2.5000001e-5)"
         id="path13" />
    </clipPath>
    <clipPath
       clipPathUnits="userSpaceOnUse"
       id="clipPath16">
      <path
         d="m 409.191,388.719 h 3571.2 v 2661.12 h -3571.2 z"
         transform="translate(0,-2.5000001e-5)"
         id="path16" />
    </clipPath>
    <clipPath
       clipPathUnits="userSpaceOnUse"
       id="clipPath23">
      <path
         d="m 409.191,388.719 h 3571.2 v 2661.12 h -3571.2 z"
         transform="translate(0,-2.5000001e-5)"
         id="path23" />
    </clipPath>
    <clipPath
       clipPathUnits="userSpaceOnUse"
       id="clipPath26">
      <path
         d="m 409.191,388.719 h 3571.2 v 2661.12 h -3571.2 z"
         transform="translate(0,-2.5000001e-5)"
         id="path26" />
    </clipPath>
    <clipPath
       clipPathUnits="userSpaceOnUse"
       id="clipPath29">
      <path
         d="m 409.191,388.719 h 3571.2 v 2661.12 h -3571.2 z"
         transform="translate(0,-2.5000001e-5)"
         id="path29" />
    </clipPath>
    <clipPath
       clipPathUnits="userSpaceOnUse"
       id="clipPath32">
      <path
         d="m 409.191,388.719 h 3571.2 v 2661.12 h -3571.2 z"
         transform="translate(0,-2.5000001e-5)"
         id="path32" />
    </clipPath>
    <clipPath
       clipPathUnits="userSpaceOnUse"
       id="clipPath35">
      <path
         d="m 409.191,388.719 h 3571.2 v 2661.12 h -3571.2 z"
         transform="translate(0,-2.5000001e-5)"
         id="path35" />
    </clipPath>
    <clipPath
       clipPathUnits="userSpaceOnUse"
       id="clipPath38">
      <path
         d="m 409.191,388.719 h 3571.2 v 2661.12 h -3571.2 z"
         transform="translate(0,-2.5000001e-5)"
         id="path38" />
    </clipPath>
    <clipPath
       clipPathUnits="userSpaceOnUse"
       id="clipPath41">
      <path
         d="m 409.191,388.719 h 3571.2 v 2661.12 h -3571.2 z"
         transform="translate(0,-2.5000001e-5)"
         id="path41" />
    </clipPath>
    <clipPath
       clipPathUnits="userSpaceOnUse"
       id="clipPath44">
      <path
         d="m 409.191,388.719 h 3571.2 v 2661.12 h -3571.2 z"
         transform="translate(0,-2.5000001e-5)"
         id="path44" />
    </clipPath>
    <clipPath
       clipPathUnits="userSpaceOnUse"
       id="clipPath49">
      <path
         d="m 409.191,388.719 h 3571.2 v 2661.12 h -3571.2 z"
         transform="translate(0,-2.5000001e-5)"
         id="path49" />
    </clipPath>
    <clipPath
       clipPathUnits="userSpaceOnUse"
       id="clipPath51">
      <path
         d="m 409.191,388.719 h 3571.2 v 2661.12 h -3571.2 z"
         transform="translate(0,-2.5000001e-5)"
         id="path51" />
    </clipPath>
    <clipPath
       clipPathUnits="userSpaceOnUse"
       id="clipPath53">
      <path
         d="m 409.191,388.719 h 3571.2 v 2661.12 h -3571.2 z"
         transform="translate(0,-2.5000001e-5)"
         id="path53" />
    </clipPath>
    <clipPath
       clipPathUnits="userSpaceOnUse"
       id="clipPath55">
      <path
         d="m 409.191,388.719 h 3571.2 v 2661.12 h -3571.2 z"
         transform="translate(0,-2.5000001e-5)"
         id="path55" />
    </clipPath>
    <clipPath
       clipPathUnits="userSpaceOnUse"
       id="clipPath57">
      <path
         d="m 409.191,388.719 h 3571.2 v 2661.12 h -3571.2 z"
         transform="translate(0,-2.5000001e-5)"
         id="path57" />
    </clipPath>
    <clipPath
       clipPathUnits="userSpaceOnUse"
       id="clipPath59">
      <path
         d="m 409.191,388.719 h 3571.2 v 2661.12 h -3571.2 z"
         transform="translate(0,-2.5000001e-5)"
         id="path59" />
    </clipPath>
    <clipPath
       clipPathUnits="userSpaceOnUse"
       id="clipPath61">
      <path
         d="m 409.191,388.719 h 3571.2 v 2661.12 h -3571.2 z"
         transform="translate(0,-2.5000001e-5)"
         id="path61" />
    </clipPath>
    <clipPath
       clipPathUnits="userSpaceOnUse"
       id="clipPath63">
      <path
         d="m 409.191,388.719 h 3571.2 v 2661.12 h -3571.2 z"
         transform="translate(0,-2.5000001e-5)"
         id="path63" />
    </clipPath>
  </defs>
  <sodipodi:namedview
     id="namedview1"
     pagecolor="#ffffff"
     bordercolor="#000000"
     borderopacity="0.25"
     inkscape:showpageshadow="2"
     inkscape:pageopacity="0.0"
     inkscape:pagecheckerboard="0"
     inkscape:deskcolor="#d1d1d1">
    <inkscape:page
       x="0"
       y="0"
       inkscape:label="1"
       id="page1"
       width="628.88"
       height="437.57333"
       margin="0"
       bleed="0" />
  </sodipodi:namedview>
  <g
     id="g1"
     inkscape:groupmode="layer"
     inkscape:label="1">
    <path
       id="path1"
       d="M 0,0 H 4716.63 V 3281.84 H 0 Z"
       style="fill:#ffffff;fill-opacity:1;fill-rule:nonzero;stroke:none"
       transform="matrix(0.13333333,0,0,-0.13333333,0,437.57333)" />
    <path
       id="path2"
       d="m 409.188,388.719 h 3571.2 v 2661.12 h -3571.2 z"
       style="fill:#ffffff;fill-opacity:1;fill-rule:nonzero;stroke:none"
       transform="matrix(0.13333333,0,0,-0.13333333,0,437.57333)" />
    <path
       id="path3"
       d="M 855.586,388.719 V 3049.84"
       style="fill:none;stroke:#b0b0b0;stroke-width:8;stroke-linecap:square;stroke-linejoin:round;stroke-miterlimit:10;stroke-dasharray:none;stroke-opacity:1"
       transform="matrix(0.13333333,0,0,-0.13333333,0,437.57333)"
       clip-path="url(#clipPath4)" />
    <path
       id="path5"
       d="m 855.59,388.719 v -35"
       style="fill:#000000;fill-opacity:1;fill-rule:nonzero;stroke:#000000;stroke-width:8;stroke-linecap:butt;stroke-linejoin:round;stroke-miterlimit:10;stroke-dasharray:none;stroke-opacity:1"
       transform="matrix(0.13333333,0,0,-0.13333333,0,437.57333)" />
    <text
       id="text5"
       xml:space="preserve"
       transform="matrix(1.3333333,0,0,1.3333333,109.83853,405.20253)"><tspan
         id="tspan5"
         style="font-variant:normal;font-weight:normal;font-size:1px;writing-mode:lr-tb;fill:#000000;fill-opacity:1;fill-rule:nonzero;stroke:none"
         x="0"
         y="0">5</tspan></text>
    <path
       id="path6"
       d="M 1599.59,388.719 V 3049.84"
       style="fill:none;stroke:#b0b0b0;stroke-width:8;stroke-linecap:square;stroke-linejoin:round;stroke-miterlimit:10;stroke-dasharray:none;stroke-opacity:1"
       transform="matrix(0.13333333,0,0,-0.13333333,0,437.57333)"
       clip-path="url(#clipPath7)" />
    <path
       id="path8"
       d="m 1599.59,388.719 v -35"
       style="fill:#000000;fill-opacity:1;fill-rule:nonzero;stroke:#000000;stroke-width:8;stroke-linecap:butt;stroke-linejoin:round;stroke-miterlimit:10;stroke-dasharray:none;stroke-opacity:1"
       transform="matrix(0.13333333,0,0,-0.13333333,0,437.57333)" />
    <text
       id="text8"
       xml:space="preserve"
       transform="matrix(1.3333333,0,0,1.3333333,204.79867,405.20253)"><tspan
         id="tspan8"
         style="font-variant:normal;font-weight:normal;font-size:1px;writing-mode:lr-tb;fill:#000000;fill-opacity:1;fill-rule:nonzero;stroke:none"
         x="0"
         y="0">10</tspan></text>
    <path
       id="path9"
       d="M 2343.59,388.719 V 3049.84"
       style="fill:none;stroke:#b0b0b0;stroke-width:8;stroke-linecap:square;stroke-linejoin:round;stroke-miterlimit:10;stroke-dasharray:none;stroke-opacity:1"
       transform="matrix(0.13333333,0,0,-0.13333333,0,437.57333)"
       clip-path="url(#clipPath10)" />
    <path
       id="path11"
       d="m 2343.59,388.719 v -35"
       style="fill:#000000;fill-opacity:1;fill-rule:nonzero;stroke:#000000;stroke-width:8;stroke-linecap:butt;stroke-linejoin:round;stroke-miterlimit:10;stroke-dasharray:none;stroke-opacity:1"
       transform="matrix(0.13333333,0,0,-0.13333333,0,437.57333)" />
    <text
       id="text11"
       xml:space="preserve"
       transform="matrix(1.3333333,0,0,1.3333333,303.99867,405.20253)"><tspan
         id="tspan11"
         style="font-variant:normal;font-weight:normal;font-size:1px;writing-mode:lr-tb;fill:#000000;fill-opacity:1;fill-rule:nonzero;stroke:none"
         x="0"
         y="0">15</tspan></text>
    <path
       id="path12"
       d="M 3087.59,388.719 V 3049.84"
       style="fill:none;stroke:#b0b0b0;stroke-width:8;stroke-linecap:square;stroke-linejoin:round;stroke-miterlimit:10;stroke-dasharray:none;stroke-opacity:1"
       transform="matrix(0.13333333,0,0,-0.13333333,0,437.57333)"
       clip-path="url(#clipPath13)" />
    <path
       id="path14"
       d="m 3087.59,388.719 v -35"
       style="fill:#000000;fill-opacity:1;fill-rule:nonzero;stroke:#000000;stroke-width:8;stroke-linecap:butt;stroke-linejoin:round;stroke-miterlimit:10;stroke-dasharray:none;stroke-opacity:1"
       transform="matrix(0.13333333,0,0,-0.13333333,0,437.57333)" />
    <text
       id="text14"
       xml:space="preserve"
       transform="matrix(1.3333333,0,0,1.3333333,403.19867,405.20253)"><tspan
         id="tspan14"
         style="font-variant:normal;font-weight:normal;font-size:1px;writing-mode:lr-tb;fill:#000000;fill-opacity:1;fill-rule:nonzero;stroke:none"
         x="0"
         y="0">20</tspan></text>
    <path
       id="path15"
       d="M 3831.59,388.719 V 3049.84"
       style="fill:none;stroke:#b0b0b0;stroke-width:8;stroke-linecap:square;stroke-linejoin:round;stroke-miterlimit:10;stroke-dasharray:none;stroke-opacity:1"
       transform="matrix(0.13333333,0,0,-0.13333333,0,437.57333)"
       clip-path="url(#clipPath16)" />
    <path
       id="path17"
       d="m 3831.59,388.719 v -35"
       style="fill:#000000;fill-opacity:1;fill-rule:nonzero;stroke:#000000;stroke-width:8;stroke-linecap:butt;stroke-linejoin:round;stroke-miterlimit:10;stroke-dasharray:none;stroke-opacity:1"
       transform="matrix(0.13333333,0,0,-0.13333333,0,437.57333)" />
    <text
       id="text17"
       xml:space="preserve"
       transform="matrix(1.3333333,0,0,1.3333333,502.39867,405.20253)"><tspan
         id="tspan17"
         style="font-variant:normal;font-weight:normal;font-size:1px;writing-mode:lr-tb;fill:#000000;fill-opacity:1;fill-rule:nonzero;stroke:none"
         x="0"
         y="0">25</tspan><tspan
         id="tspan18"
         style="font-variant:normal;font-weight:normal;font-size:1px;writing-mode:lr-tb;fill:#000000;fill-opacity:1;fill-rule:nonzero;stroke:none"
         x="-183.82001"
         y="13.6719">g</tspan><tspan
         id="tspan19"
         style="font-variant:normal;font-weight:normal;font-size:0.7px;writing-mode:lr-tb;fill:#000000;fill-opacity:1;fill-rule:nonzero;stroke:none"
         x="-177.47234"
         y="15.31253">m</tspan><tspan
         id="tspan20"
         style="font-variant:normal;font-weight:normal;font-size:1px;writing-mode:lr-tb;fill:#000000;fill-opacity:1;fill-rule:nonzero;stroke:none"
         x="-170.38016"
         y="13.6719">/I</tspan><tspan
         id="tspan21"
         style="font-variant:normal;font-weight:normal;font-size:0.7px;writing-mode:lr-tb;fill:#000000;fill-opacity:1;fill-rule:nonzero;stroke:none"
         x="-164.0614"
         y="15.31253">D</tspan><tspan
         id="tspan22"
         style="font-variant:normal;font-weight:normal;font-size:1px;writing-mode:lr-tb;fill:#000000;fill-opacity:1;fill-rule:nonzero;stroke:none"
         x="-158.39812"
         y="13.6719"> (S/A)</tspan></text>
    <path
       id="path22"
       d="M 409.188,509.676 H 3980.39"
       style="fill:none;stroke:#b0b0b0;stroke-width:8;stroke-linecap:square;stroke-linejoin:round;stroke-miterlimit:10;stroke-dasharray:none;stroke-opacity:1"
       transform="matrix(0.13333333,0,0,-0.13333333,0,437.57333)"
       clip-path="url(#clipPath23)" />
    <path
       id="path24"
       d="m 409.188,509.676 h -35"
       style="fill:#000000;fill-opacity:1;fill-rule:nonzero;stroke:#000000;stroke-width:8;stroke-linecap:butt;stroke-linejoin:round;stroke-miterlimit:10;stroke-dasharray:none;stroke-opacity:1"
       transform="matrix(0.13333333,0,0,-0.13333333,0,437.57333)" />
    <text
       id="text24"
       xml:space="preserve"
       transform="matrix(1.3333333,0,0,1.3333333,36.745867,374.67907)"><tspan
         id="tspan24"
         style="font-variant:normal;font-weight:normal;font-size:1px;writing-mode:lr-tb;fill:#000000;fill-opacity:1;fill-rule:nonzero;stroke:none"
         x="0"
         y="0">0</tspan></text>
    <path
       id="path25"
       d="M 409.188,836.547 H 3980.39"
       style="fill:none;stroke:#b0b0b0;stroke-width:8;stroke-linecap:square;stroke-linejoin:round;stroke-miterlimit:10;stroke-dasharray:none;stroke-opacity:1"
       transform="matrix(0.13333333,0,0,-0.13333333,0,437.57333)"
       clip-path="url(#clipPath26)" />
    <path
       id="path27"
       d="m 409.188,836.547 h -35"
       style="fill:#000000;fill-opacity:1;fill-rule:nonzero;stroke:#000000;stroke-width:8;stroke-linecap:butt;stroke-linejoin:round;stroke-miterlimit:10;stroke-dasharray:none;stroke-opacity:1"
       transform="matrix(0.13333333,0,0,-0.13333333,0,437.57333)" />
    <text
       id="text27"
       xml:space="preserve"
       transform="matrix(1.3333333,0,0,1.3333333,28.266667,331.0968)"><tspan
         id="tspan27"
         style="font-variant:normal;font-weight:normal;font-size:1px;writing-mode:lr-tb;fill:#000000;fill-opacity:1;fill-rule:nonzero;stroke:none"
         x="0"
         y="0">10</tspan></text>
    <path
       id="path28"
       d="M 409.188,1163.41 H 3980.39"
       style="fill:none;stroke:#b0b0b0;stroke-width:8;stroke-linecap:square;stroke-linejoin:round;stroke-miterlimit:10;stroke-dasharray:none;stroke-opacity:1"
       transform="matrix(0.13333333,0,0,-0.13333333,0,437.57333)"
       clip-path="url(#clipPath29)" />
    <path
       id="path30"
       d="m 409.188,1163.41 h -35"
       style="fill:#000000;fill-opacity:1;fill-rule:nonzero;stroke:#000000;stroke-width:8;stroke-linecap:butt;stroke-linejoin:round;stroke-miterlimit:10;stroke-dasharray:none;stroke-opacity:1"
       transform="matrix(0.13333333,0,0,-0.13333333,0,437.57333)" />
    <text
       id="text30"
       xml:space="preserve"
       transform="matrix(1.3333333,0,0,1.3333333,28.266667,287.51467)"><tspan
         id="tspan30"
         style="font-variant:normal;font-weight:normal;font-size:1px;writing-mode:lr-tb;fill:#000000;fill-opacity:1;fill-rule:nonzero;stroke:none"
         x="0"
         y="0">20</tspan></text>
    <path
       id="path31"
       d="M 409.188,1490.28 H 3980.39"
       style="fill:none;stroke:#b0b0b0;stroke-width:8;stroke-linecap:square;stroke-linejoin:round;stroke-miterlimit:10;stroke-dasharray:none;stroke-opacity:1"
       transform="matrix(0.13333333,0,0,-0.13333333,0,437.57333)"
       clip-path="url(#clipPath32)" />
    <path
       id="path33"
       d="m 409.188,1490.28 h -35"
       style="fill:#000000;fill-opacity:1;fill-rule:nonzero;stroke:#000000;stroke-width:8;stroke-linecap:butt;stroke-linejoin:round;stroke-miterlimit:10;stroke-dasharray:none;stroke-opacity:1"
       transform="matrix(0.13333333,0,0,-0.13333333,0,437.57333)" />
    <text
       id="text33"
       xml:space="preserve"
       transform="matrix(1.3333333,0,0,1.3333333,28.266667,243.932)"><tspan
         id="tspan33"
         style="font-variant:normal;font-weight:normal;font-size:1px;writing-mode:lr-tb;fill:#000000;fill-opacity:1;fill-rule:nonzero;stroke:none"
         x="0"
         y="0">30</tspan></text>
    <path
       id="path34"
       d="M 409.188,1817.15 H 3980.39"
       style="fill:none;stroke:#b0b0b0;stroke-width:8;stroke-linecap:square;stroke-linejoin:round;stroke-miterlimit:10;stroke-dasharray:none;stroke-opacity:1"
       transform="matrix(0.13333333,0,0,-0.13333333,0,437.57333)"
       clip-path="url(#clipPath35)" />
    <path
       id="path36"
       d="m 409.188,1817.15 h -35"
       style="fill:#000000;fill-opacity:1;fill-rule:nonzero;stroke:#000000;stroke-width:8;stroke-linecap:butt;stroke-linejoin:round;stroke-miterlimit:10;stroke-dasharray:none;stroke-opacity:1"
       transform="matrix(0.13333333,0,0,-0.13333333,0,437.57333)" />
    <text
       id="text36"
       xml:space="preserve"
       transform="matrix(1.3333333,0,0,1.3333333,28.266667,200.34933)"><tspan
         id="tspan36"
         style="font-variant:normal;font-weight:normal;font-size:1px;writing-mode:lr-tb;fill:#000000;fill-opacity:1;fill-rule:nonzero;stroke:none"
         x="0"
         y="0">40</tspan></text>
    <path
       id="path37"
       d="M 409.188,2144.02 H 3980.39"
       style="fill:none;stroke:#b0b0b0;stroke-width:8;stroke-linecap:square;stroke-linejoin:round;stroke-miterlimit:10;stroke-dasharray:none;stroke-opacity:1"
       transform="matrix(0.13333333,0,0,-0.13333333,0,437.57333)"
       clip-path="url(#clipPath38)" />
    <path
       id="path39"
       d="m 409.188,2144.02 h -35"
       style="fill:#000000;fill-opacity:1;fill-rule:nonzero;stroke:#000000;stroke-width:8;stroke-linecap:butt;stroke-linejoin:round;stroke-miterlimit:10;stroke-dasharray:none;stroke-opacity:1"
       transform="matrix(0.13333333,0,0,-0.13333333,0,437.57333)" />
    <text
       id="text39"
       xml:space="preserve"
       transform="matrix(1.3333333,0,0,1.3333333,28.266667,156.76667)"><tspan
         id="tspan39"
         style="font-variant:normal;font-weight:normal;font-size:1px;writing-mode:lr-tb;fill:#000000;fill-opacity:1;fill-rule:nonzero;stroke:none"
         x="0"
         y="0">50</tspan></text>
    <path
       id="path40"
       d="M 409.188,2470.89 H 3980.39"
       style="fill:none;stroke:#b0b0b0;stroke-width:8;stroke-linecap:square;stroke-linejoin:round;stroke-miterlimit:10;stroke-dasharray:none;stroke-opacity:1"
       transform="matrix(0.13333333,0,0,-0.13333333,0,437.57333)"
       clip-path="url(#clipPath41)" />
    <path
       id="path42"
       d="m 409.188,2470.88 h -35"
       style="fill:#000000;fill-opacity:1;fill-rule:nonzero;stroke:#000000;stroke-width:8;stroke-linecap:butt;stroke-linejoin:round;stroke-miterlimit:10;stroke-dasharray:none;stroke-opacity:1"
       transform="matrix(0.13333333,0,0,-0.13333333,0,437.57333)" />
    <text
       id="text42"
       xml:space="preserve"
       transform="matrix(1.3333333,0,0,1.3333333,28.266667,113.184)"><tspan
         id="tspan42"
         style="font-variant:normal;font-weight:normal;font-size:1px;writing-mode:lr-tb;fill:#000000;fill-opacity:1;fill-rule:nonzero;stroke:none"
         x="0"
         y="0">60</tspan></text>
    <path
       id="path43"
       d="M 409.188,2797.75 H 3980.39"
       style="fill:none;stroke:#b0b0b0;stroke-width:8;stroke-linecap:square;stroke-linejoin:round;stroke-miterlimit:10;stroke-dasharray:none;stroke-opacity:1"
       transform="matrix(0.13333333,0,0,-0.13333333,0,437.57333)"
       clip-path="url(#clipPath44)" />
    <path
       id="path45"
       d="m 409.188,2797.75 h -35"
       style="fill:#000000;fill-opacity:1;fill-rule:nonzero;stroke:#000000;stroke-width:8;stroke-linecap:butt;stroke-linejoin:round;stroke-miterlimit:10;stroke-dasharray:none;stroke-opacity:1"
       transform="matrix(0.13333333,0,0,-0.13333333,0,437.57333)" />
    <text
       id="text45"
       xml:space="preserve"
       transform="matrix(1.3333333,0,0,1.3333333,28.266667,69.602667)"><tspan
         id="tspan45"
         style="font-variant:normal;font-weight:normal;font-size:1px;writing-mode:lr-tb;fill:#000000;fill-opacity:1;fill-rule:nonzero;stroke:none"
         x="0"
         y="0">70</tspan></text>
    <text
       id="text46"
       xml:space="preserve"
       transform="matrix(0,-1.3333333,1.3333333,0,19.6208,235.00267)"><tspan
         id="tspan46"
         style="font-variant:normal;font-weight:normal;font-size:1px;writing-mode:lr-tb;fill:#000000;fill-opacity:1;fill-rule:nonzero;stroke:none"
         x="0"
         y="0">f</tspan><tspan
         id="tspan47"
         style="font-variant:normal;font-weight:normal;font-size:0.7px;writing-mode:lr-tb;fill:#000000;fill-opacity:1;fill-rule:nonzero;stroke:none"
         x="3.5203099"
         y="1.64063">T</tspan><tspan
         id="tspan48"
         style="font-variant:normal;font-weight:normal;font-size:1px;writing-mode:lr-tb;fill:#000000;fill-opacity:1;fill-rule:nonzero;stroke:none"
         x="8.0695295"
         y="0"> (GHz)</tspan></text>
    <path
       id="path48"
       d="m 4196.22,509.68 13.82,0.004 12.91,0.007 11.56,0.016 7.94,0.027 10.13,0.059 6.53,0.113 7.13,0.231 5.39,0.465 0.25,0.933 -5.23,1.867 -18.44,3.7 -42.8,7.199 -84.3,13.508 -157.98,23.769 -256.31,37.504 -350.73,51.094 -397.05,59.887 -364.71,65 -292.9,71.203 -224.7,80.773 -177.06,91.921 -147.72,102.65 -129,111.7 -114.88,118.52 -104.36,123.08 -95.45,125.13 -86.56,125.45 -79.26,123.39 -72.69,118.91 -66.27,114.39 -60.683,108.08 -55.41,100.98 -51.145,92.74 -46.758,84.73 -42.894,76.82 -39.371,68.92 -36.328,60.64 -33.68,52.09 -30.508,45.84 -28.41,38.73 -26.254,32.27 -24.234,26.8 -22.364,20.57 -20.707,15.54 -19.343,11.43 -17.789,7.12 -16.418,3.4 -15.391,-0.27 -14.492,-3.66 -13.344,-6.15 -12.465,-8.37 -11.703,-11.11 -10.976,-13.25 -10.387,-15.18 -9.633,-16.46 -9.07,-18.58 -8.59,-19.4 -8.055,-20.66 -7.672,-21.96 -7.183,-22.73"
       style="fill:none;stroke:#1f77b4;stroke-width:15;stroke-linecap:square;stroke-linejoin:round;stroke-miterlimit:10;stroke-dasharray:none;stroke-opacity:1"
       transform="matrix(0.13333333,0,0,-0.13333333,0,437.57333)"
       clip-path="url(#clipPath49)" />
    <path
       id="path50"
       d="m 4461.36,509.688 11.51,0.011 10.92,0.028 7.75,0.05 10.66,0.114 6.54,0.23 4.43,0.488 -2.14,1.012 -11.56,2.106 -34.96,4.289 -72.74,8.464 -144.46,15.661 -251.02,25.871 -367.61,36.215 -432.61,42.406 -415.13,44.465 -341.53,46.496 -267.04,50.574 -211.47,55.684 -173.99,60.722 -148.15,64.711 -128.96,67.635 -113.75,68.67 -100.75,69.55 -90.72,68.48 -80.82,66.84 -72.54,64.95 -65.865,61.36 -59.57,58.12 -54.082,54.25 -49.398,50.19 -45.184,45.69 -41.332,41.36 -37.652,37.49 -34.774,33.11 -32.117,28.75 -29.48,25.36 -27.211,21.02 -25.207,17.81 -23.52,14.8 -21.734,11.42 -19.836,8.83 -18.875,5.79 -17.258,3.79 -16.285,1.34 -15.34,-0.89 -14.098,-2.68 -13.351,-4.56 -12.465,-5.91 -11.773,-7.64 -10.903,-8.58 -10.394,-10.28 -9.746,-11 -9.141,-11.9 -8.754,-13.1 -8.23,-13.5 -7.782,-14.88 -7.363,-14.89 -6.973,-15.58 -6.675,-16.18 -6.25,-16.29"
       style="fill:none;stroke:#ff7f0e;stroke-width:15;stroke-linecap:square;stroke-linejoin:round;stroke-miterlimit:10;stroke-dasharray:none;stroke-opacity:1"
       transform="matrix(0.13333333,0,0,-0.13333333,0,437.57333)"
       clip-path="url(#clipPath51)" />
    <path
       id="path52"
       d="m 4610.65,509.699 12.32,0.024 9.01,0.054 5.55,0.114 6.7,0.246 1.11,0.527 -8.12,1.117 -25.89,2.34 -64.92,4.738 -128.35,9.008 -236.92,15.219 -359.12,21.641 -440.2,25.371 -436.26,26.254 -371.58,26.906 -298.03,28.621 -239.85,30.957 -195.81,33.355 -164.63,35.231 -140.62,36.664 -121.7,37.488 -106.06,37.594 -93.68,37.707 -82.49,36.836 -74.2,35.707 -66.156,34.472 -59.289,33.03 -53.957,30.97 -48.629,29.22 -44.246,27.21 -40.621,25.04 -37.114,22.85 -34.214,20.84 -31.133,18.62 -29.102,16.25 -26.742,14.94 -24.926,12.56 -23.093,10.55 -21.375,8.88 -20.157,7.15 -18.609,5.55 -17.555,3.7 -16.504,2.2 -15.34,1.12 -14.57,-0.32 -13.578,-1.48 -12.824,-2.88 -12.071,-4.04 -11.414,-4.71 -10.753,-5.49 -10.247,-6.57 -9.722,-7.32 -9.145,-8.14 -8.738,-8.49 -8.207,-9.31 -7.828,-9.43 -7.465,-10.23 -7.086,-10.61 -6.812,-11.12 -6.434,-10.91 -6.156,-11.73"
       style="fill:none;stroke:#2ca02c;stroke-width:15;stroke-linecap:square;stroke-linejoin:round;stroke-miterlimit:10;stroke-dasharray:none;stroke-opacity:1"
       transform="matrix(0.13333333,0,0,-0.13333333,0,437.57333)"
       clip-path="url(#clipPath53)" />
    <path
       id="path54"
       d="m 4680.41,509.703 10.48,0.035 8.66,0.067 6.58,0.152 1.86,0.328 -5.88,0.703 -22.61,1.489 -58.77,3.05 -121.68,5.844 -227.78,9.93 -350.56,14.094 -440.24,16.378 -445.36,16.774 -386.7,17.027 -314.67,17.949 -253.62,19.313 -207.82,20.734 -173.14,21.907 -146.87,22.785 -126.06,23.234 -109.27,23.641 -94.87,23.566 -84.16,23.258 -73.99,22.844 -66.448,22.234 -59.66,21.352 -53.93,20.281 -48.144,19.578 -43.93,18.328 -39.855,17.246 -36.762,15.899 -33.738,14.621 -31.008,13.597 -28.465,12.391 -26.531,10.958 -24.629,9.59 -22.848,8.71 -21.383,7.14 -19.836,6.31 -18.668,5.29 -17.578,3.79 -16.437,2.8 -15.629,1.85 -14.516,0.64 -13.859,-0.04 -13.145,-1.19 -12.515,-1.83 -11.656,-2.75 -11.293,-3.62 -10.516,-4.23 -10.102,-4.85 -9.636,-5.67 -9.133,-5.84 -8.738,-6.67 -8.223,-7.19 -8.059,-7.385 -7.535,-7.965 -7.254,-8.274 -6.84,-8.23 -6.691,-8.774 -6.344,-8.906"
       style="fill:none;stroke:#d62728;stroke-width:15;stroke-linecap:square;stroke-linejoin:round;stroke-miterlimit:10;stroke-dasharray:none;stroke-opacity:1"
       transform="matrix(0.13333333,0,0,-0.13333333,0,437.57333)"
       clip-path="url(#clipPath55)" />
    <path
       id="path56"
       d="m 4720.59,509.707 6.04,0.023 m 0,1.438 -36.97,1.582 -90.2,3.227 -174.37,5.796 -295.25,8.829 -411.42,10.957 -455.9,11.496 -421.59,11.488 -351.84,11.879 -284.79,12.762 -232.44,13.695 -191.26,14.508 -160.94,15.218 -136.71,15.688 -117.42,15.992 -101.73,16.078 -88.96,16.082 -79,15.821 -69.27,15.523 -61.894,15.117 -55.742,14.625 -49.911,14 -46.027,13.215 -41.062,12.645 -37.317,12.129 -34.715,11.101 -31.722,10.418 -29.172,9.637 -27.156,8.664 -25.024,8.058 -23.441,7 -21.664,6.434 -20.52,5.34 -19.086,4.668 -17.937,3.683 -16.711,3.184 -16.031,2.16 -14.985,1.567 -14.355,0.425 h -13.535 l -12.981,-0.902 -12.098,-1.441 -11.562,-2.051 -11.094,-2.906 -10.566,-3.411 -10.383,-4.101 -9.5,-4.399 -9.301,-4.902 -8.832,-5.379 -8.422,-5.703 -8.09,-6.125 -7.793,-6.297 -7.41,-6.551 -7.082,-6.726 -6.789,-6.922 -6.441,-7.086"
       style="fill:none;stroke:#9467bd;stroke-width:15;stroke-linecap:square;stroke-linejoin:round;stroke-miterlimit:10;stroke-dasharray:none;stroke-opacity:1"
       transform="matrix(0.13333333,0,0,-0.13333333,0,437.57333)"
       clip-path="url(#clipPath57)" />
    <path
       id="path58"
       d="m 4726.63,511.117 -83.75,1.012 -199.52,2.074 -323.36,2.86 -427.4,3.187 -455.08,3.176 -414.2,3.199 -348.83,3.363 -283.76,3.633 -233.01,3.895 -193.44,4.121 -160.79,4.312 -136.46,4.418 -116.74,4.512 -100.94,4.551 -87.35,4.562 -76.89,4.52 -67.85,4.488 -60.369,4.41 -53.922,4.317 -48.645,4.183 -43.761,4.09 -39.758,3.926 -36,3.777 -33.164,3.625 -30.383,3.442 -28.086,3.261 -25.922,3.051 -23.992,2.875 -22.395,2.668 -21.023,2.422 -19.727,2.141 -18.203,1.996 -17.305,1.726 -16.57,1.363 -15.433,1.192 -14.899,0.836 -14.348,0.461 -13.648,0.195 -12.918,-0.059 -12.769,-0.511 -12.118,-0.774 -11.773,-1.086 -11.391,-1.382 -10.859,-1.622 -10.559,-1.878 -10.293,-2.153 -9.863,-2.324 -9.461,-2.445 -9.109,-2.586 -8.805,-2.727 -8.355,-2.73 -7.961,-2.758 -7.606,-2.77 -7.34,-2.824 -6.875,-2.777"
       style="fill:none;stroke:#8c564b;stroke-width:15;stroke-linecap:square;stroke-linejoin:round;stroke-miterlimit:10;stroke-dasharray:none;stroke-opacity:1"
       transform="matrix(0.13333333,0,0,-0.13333333,0,437.57333)"
       clip-path="url(#clipPath59)" />
    <path
       id="path60"
       d="m 4726.63,509.781 -128.58,0.071 -259.77,0.113 -373.85,0.125 -441.04,0.129 -435.02,0.133 -384.7,0.14 -324.31,0.156 -266.9,0.165 -220.91,0.179 -183.69,0.184 -154.21,0.195 -130.25,0.195 -111.37,0.204 -96.48,0.203 -82.94,0.203 -73.54,0.199 -64.812,0.203 -56.981,0.199 -51.293,0.196 -46.004,0.191 -41.445,0.191 -37.73,0.184 -34.633,0.18 -31.274,0.176 -28.707,0.168 -26.461,0.164 -24.644,0.156 -22.793,0.152 -21.086,0.149 -19.73,0.136 -18.524,0.125 -17.344,0.121 -16.347,0.11 -15.676,0.094 -14.879,0.082 -14.144,0.062 -14.098,0.039 -13.469,0.016 -13.41,-0.008 -12.996,-0.039 -13.051,-0.067 -12.992,-0.093 -12.684,-0.121 -12.582,-0.141 -12.183,-0.156 -11.852,-0.168 -11.207,-0.172 -10.875,-0.172 -10.226,-0.172 -9.68,-0.164 -9.043,-0.16 -8.555,-0.156 -7.98,-0.149 -7.465,-0.144 -7.059,-0.133 -6.519,-0.129"
       style="fill:none;stroke:#e377c2;stroke-width:15;stroke-linecap:square;stroke-linejoin:round;stroke-miterlimit:10;stroke-dasharray:none;stroke-opacity:1"
       transform="matrix(0.13333333,0,0,-0.13333333,0,437.57333)"
       clip-path="url(#clipPath61)" />
    <path
       id="path62"
       d="m 4726.63,509.703 -33.45,0.008 -193.85,0.023 -311.5,0.028 -410.36,0.031 -440.3,0.035 -413.64,0.031 -358.52,0.039 -298.53,0.04 -246.97,0.046 -205.26,0.043 -170.68,0.051 -144.64,0.047 -122.23,0.051 -104.93,0.051 -90.85,0.054 -79.25,0.051 -69.51,0.051 -61.844,0.051 -54.574,0.05 -48.82,0.051 -44.336,0.047 -39.606,0.047 -36.132,0.047 -33.067,0.047 -30.172,0.043 -27.879,0.043 -25.503,0.043 -23.618,0.043 -21.894,0.035 -20.422,0.039 -19.254,0.035 -17.953,0.031 -16.945,0.031 -15.899,0.028 -15.027,0.027 -14.606,0.02 -14.132,0.015 -13.95,0.008 H 423.16 l -13.301,-0.004 -13.398,-0.015 -13.234,-0.024 -13.18,-0.027 -12.981,-0.039 -12.882,-0.043 -12.297,-0.043 -11.965,-0.047 -11.481,-0.047 -10.757,-0.043 -10.121,-0.047 -9.383,-0.039 -8.922,-0.043 -8.172,-0.039 -7.77,-0.035 -7.156,-0.035 -6.777,-0.035 -6.309,-0.032"
       style="fill:none;stroke:#7f7f7f;stroke-width:15;stroke-linecap:square;stroke-linejoin:round;stroke-miterlimit:10;stroke-dasharray:none;stroke-opacity:1"
       transform="matrix(0.13333333,0,0,-0.13333333,0,437.57333)"
       clip-path="url(#clipPath63)" />
    <path
       id="path64"
       d="M 409.188,388.719 V 3049.84"
       style="fill:none;stroke:#000000;stroke-width:8;stroke-linecap:square;stroke-linejoin:miter;stroke-miterlimit:10;stroke-dasharray:none;stroke-opacity:1"
       transform="matrix(0.13333333,0,0,-0.13333333,0,437.57333)" />
    <path
       id="path65"
       d="M 3980.39,388.719 V 3049.84"
       style="fill:none;stroke:#000000;stroke-width:8;stroke-linecap:square;stroke-linejoin:miter;stroke-miterlimit:10;stroke-dasharray:none;stroke-opacity:1"
       transform="matrix(0.13333333,0,0,-0.13333333,0,437.57333)" />
    <path
       id="path66"
       d="M 409.188,388.719 H 3980.39"
       style="fill:none;stroke:#000000;stroke-width:8;stroke-linecap:square;stroke-linejoin:miter;stroke-miterlimit:10;stroke-dasharray:none;stroke-opacity:1"
       transform="matrix(0.13333333,0,0,-0.13333333,0,437.57333)" />
    <path
       id="path67"
       d="M 409.188,3049.84 H 3980.39"
       style="fill:none;stroke:#000000;stroke-width:8;stroke-linecap:square;stroke-linejoin:miter;stroke-miterlimit:10;stroke-dasharray:none;stroke-opacity:1"
       transform="matrix(0.13333333,0,0,-0.13333333,0,437.57333)" />
    <text
       id="text67"
       xml:space="preserve"
       transform="matrix(1.3333333,0,0,1.3333333,152.63867,21.761333)"><tspan
         id="tspan67"
         style="font-variant:normal;font-weight:normal;font-size:1.2px;writing-mode:lr-tb;fill:#000000;fill-opacity:1;fill-rule:nonzero;stroke:none"
         x="0"
         y="0">sg13_lv_nmos, V</tspan><tspan
         id="tspan68"
         style="font-variant:normal;font-weight:normal;font-size:0.84px;writing-mode:lr-tb;fill:#000000;fill-opacity:1;fill-rule:nonzero;stroke:none"
         x="100.30117"
         y="1.96875">DS</tspan><tspan
         id="tspan69"
         style="font-variant:normal;font-weight:normal;font-size:1.2px;writing-mode:lr-tb;fill:#000000;fill-opacity:1;fill-rule:nonzero;stroke:none"
         x="112.42927"
         dx="0 0 0 -0.87539041"
         y="0">=0.75V, V</tspan><tspan
         id="tspan70"
         style="font-variant:normal;font-weight:normal;font-size:0.84px;writing-mode:lr-tb;fill:#000000;fill-opacity:1;fill-rule:nonzero;stroke:none"
         x="172.37415"
         y="1.96875">SB</tspan><tspan
         id="tspan71"
         style="font-variant:normal;font-weight:normal;font-size:1.2px;writing-mode:lr-tb;fill:#000000;fill-opacity:1;fill-rule:nonzero;stroke:none"
         x="183.79715"
         y="0">=0V</tspan></text>
    <path
       id="path71"
       d="m 4081.97,1044.04 h 542.66 c 13.33,0 20,6.67 20,20 v 1310.47 c 0,13.34 -6.67,20 -20,20 h -542.66 c -13.33,0 -20,-6.66 -20,-20 V 1064.04 c 0,-13.33 6.67,-20 20,-20"
       style="fill:#ffffff;fill-opacity:1;fill-rule:nonzero;stroke:none"
       transform="matrix(0.13333333,0,0,-0.13333333,0,437.57333)" />
    <path
       id="path72"
       d="m 4081.97,1044.04 h 542.66 c 13.33,0 20,6.67 20,20 v 1310.47 c 0,13.34 -6.67,20 -20,20 h -542.66 c -13.33,0 -20,-6.66 -20,-20 V 1064.04 c 0,-13.33 6.67,-20 20,-20 z"
       style="fill:none;stroke:#cccccc;stroke-width:10;stroke-linecap:butt;stroke-linejoin:miter;stroke-miterlimit:10;stroke-dasharray:none;stroke-opacity:1"
       transform="matrix(0.13333333,0,0,-0.13333333,0,437.57333)" />
    <text
       id="text72"
       xml:space="preserve"
       transform="matrix(1.3333333,0,0,1.3333333,558.648,133.76267)"><tspan
         id="tspan72"
         style="font-variant:normal;font-weight:normal;font-size:1px;writing-mode:lr-tb;fill:#000000;fill-opacity:1;fill-rule:nonzero;stroke:none"
         x="0"
         y="0">L (µm)</tspan></text>
    <path
       id="path73"
       d="m 4101.97,2166.86 h 200"
       style="fill:none;stroke:#1f77b4;stroke-width:15;stroke-linecap:square;stroke-linejoin:round;stroke-miterlimit:10;stroke-dasharray:none;stroke-opacity:1"
       transform="matrix(0.13333333,0,0,-0.13333333,0,437.57333)" />
    <text
       id="text73"
       xml:space="preserve"
       transform="matrix(1.3333333,0,0,1.3333333,584.26267,153.32533)"><tspan
         id="tspan73"
         style="font-variant:normal;font-weight:normal;font-size:1px;writing-mode:lr-tb;fill:#000000;fill-opacity:1;fill-rule:nonzero;stroke:none"
         x="0"
         y="0">0.13</tspan></text>
    <path
       id="path74"
       d="m 4101.97,2020.14 h 200"
       style="fill:none;stroke:#ff7f0e;stroke-width:15;stroke-linecap:square;stroke-linejoin:round;stroke-miterlimit:10;stroke-dasharray:none;stroke-opacity:1"
       transform="matrix(0.13333333,0,0,-0.13333333,0,437.57333)" />
    <text
       id="text74"
       xml:space="preserve"
       transform="matrix(1.3333333,0,0,1.3333333,584.26267,172.888)"><tspan
         id="tspan74"
         style="font-variant:normal;font-weight:normal;font-size:1px;writing-mode:lr-tb;fill:#000000;fill-opacity:1;fill-rule:nonzero;stroke:none"
         x="0"
         y="0">0.2</tspan></text>
    <path
       id="path75"
       d="m 4101.97,1873.42 h 200"
       style="fill:none;stroke:#2ca02c;stroke-width:15;stroke-linecap:square;stroke-linejoin:round;stroke-miterlimit:10;stroke-dasharray:none;stroke-opacity:1"
       transform="matrix(0.13333333,0,0,-0.13333333,0,437.57333)" />
    <text
       id="text75"
       xml:space="preserve"
       transform="matrix(1.3333333,0,0,1.3333333,584.26267,192.45067)"><tspan
         id="tspan75"
         style="font-variant:normal;font-weight:normal;font-size:1px;writing-mode:lr-tb;fill:#000000;fill-opacity:1;fill-rule:nonzero;stroke:none"
         x="0"
         y="0">0.3</tspan></text>
    <path
       id="path76"
       d="m 4101.97,1726.7 h 200"
       style="fill:none;stroke:#d62728;stroke-width:15;stroke-linecap:square;stroke-linejoin:round;stroke-miterlimit:10;stroke-dasharray:none;stroke-opacity:1"
       transform="matrix(0.13333333,0,0,-0.13333333,0,437.57333)" />
    <text
       id="text76"
       xml:space="preserve"
       transform="matrix(1.3333333,0,0,1.3333333,584.26267,212.01333)"><tspan
         id="tspan76"
         style="font-variant:normal;font-weight:normal;font-size:1px;writing-mode:lr-tb;fill:#000000;fill-opacity:1;fill-rule:nonzero;stroke:none"
         x="0"
         y="0">0.4</tspan></text>
    <path
       id="path77"
       d="m 4101.97,1579.98 h 200"
       style="fill:none;stroke:#9467bd;stroke-width:15;stroke-linecap:square;stroke-linejoin:round;stroke-miterlimit:10;stroke-dasharray:none;stroke-opacity:1"
       transform="matrix(0.13333333,0,0,-0.13333333,0,437.57333)" />
    <text
       id="text77"
       xml:space="preserve"
       transform="matrix(1.3333333,0,0,1.3333333,584.26267,231.576)"><tspan
         id="tspan77"
         style="font-variant:normal;font-weight:normal;font-size:1px;writing-mode:lr-tb;fill:#000000;fill-opacity:1;fill-rule:nonzero;stroke:none"
         x="0"
         y="0">0.5</tspan></text>
    <path
       id="path78"
       d="m 4101.97,1433.26 h 200"
       style="fill:none;stroke:#8c564b;stroke-width:15;stroke-linecap:square;stroke-linejoin:round;stroke-miterlimit:10;stroke-dasharray:none;stroke-opacity:1"
       transform="matrix(0.13333333,0,0,-0.13333333,0,437.57333)" />
    <text
       id="text78"
       xml:space="preserve"
       transform="matrix(1.3333333,0,0,1.3333333,584.26267,251.13867)"><tspan
         id="tspan78"
         style="font-variant:normal;font-weight:normal;font-size:1px;writing-mode:lr-tb;fill:#000000;fill-opacity:1;fill-rule:nonzero;stroke:none"
         x="0"
         y="0">1.0</tspan></text>
    <path
       id="path79"
       d="m 4101.97,1286.54 h 200"
       style="fill:none;stroke:#e377c2;stroke-width:15;stroke-linecap:square;stroke-linejoin:round;stroke-miterlimit:10;stroke-dasharray:none;stroke-opacity:1"
       transform="matrix(0.13333333,0,0,-0.13333333,0,437.57333)" />
    <text
       id="text79"
       xml:space="preserve"
       transform="matrix(1.3333333,0,0,1.3333333,584.26267,270.70133)"><tspan
         id="tspan79"
         style="font-variant:normal;font-weight:normal;font-size:1px;writing-mode:lr-tb;fill:#000000;fill-opacity:1;fill-rule:nonzero;stroke:none"
         x="0"
         y="0">5.0</tspan></text>
    <path
       id="path80"
       d="m 4101.97,1139.82 h 200"
       style="fill:none;stroke:#7f7f7f;stroke-width:15;stroke-linecap:square;stroke-linejoin:round;stroke-miterlimit:10;stroke-dasharray:none;stroke-opacity:1"
       transform="matrix(0.13333333,0,0,-0.13333333,0,437.57333)" />
    <text
       id="text80"
       xml:space="preserve"
       transform="matrix(1.3333333,0,0,1.3333333,584.26267,290.26267)"><tspan
         id="tspan80"
         style="font-variant:normal;font-weight:normal;font-size:1px;writing-mode:lr-tb;fill:#000000;fill-opacity:1;fill-rule:nonzero;stroke:none"
         x="0"
         y="0">10.0</tspan></text>
  </g>
</svg>
